<mxfile host="Electron" agent="Mozilla/5.0 (Windows NT 10.0; Win64; x64) AppleWebKit/537.36 (KHTML, like Gecko) draw.io/26.2.2 Chrome/134.0.6998.178 Electron/35.1.2 Safari/537.36" version="26.2.2">
  <diagram name="Page-1" id="lUpwgNGlxhWAfqEjenwq">
    <mxGraphModel dx="1556" dy="914" grid="1" gridSize="10" guides="1" tooltips="1" connect="1" arrows="1" fold="1" page="1" pageScale="1" pageWidth="850" pageHeight="1100" math="0" shadow="0">
      <root>
        <mxCell id="0" />
        <mxCell id="1" parent="0" />
        <mxCell id="Gv_gc-25FSfEhzksZ8vM-55" value="" style="endArrow=none;dashed=1;html=1;rounded=0;" edge="1" parent="1">
          <mxGeometry width="50" height="50" relative="1" as="geometry">
            <mxPoint x="80" y="280" as="sourcePoint" />
            <mxPoint x="1200" y="280" as="targetPoint" />
          </mxGeometry>
        </mxCell>
        <mxCell id="Gv_gc-25FSfEhzksZ8vM-1" value="&lt;font style=&quot;font-size: 22px;&quot;&gt;START&lt;/font&gt;" style="rounded=1;whiteSpace=wrap;html=1;fillColor=#BE2828;" vertex="1" parent="1">
          <mxGeometry x="200" y="320" width="80" height="80" as="geometry" />
        </mxCell>
        <mxCell id="Gv_gc-25FSfEhzksZ8vM-2" value="&lt;span style=&quot;font-size: 22px;&quot;&gt;&lt;font style=&quot;color: rgb(0, 0, 0);&quot;&gt;D0&lt;/font&gt;&lt;/span&gt;" style="rounded=1;whiteSpace=wrap;html=1;fillColor=#87BE3B;" vertex="1" parent="1">
          <mxGeometry x="280" y="320" width="80" height="80" as="geometry" />
        </mxCell>
        <mxCell id="Gv_gc-25FSfEhzksZ8vM-11" value="&lt;span style=&quot;font-size: 22px;&quot;&gt;&lt;font style=&quot;color: rgb(0, 0, 0);&quot;&gt;PARITY&lt;/font&gt;&lt;/span&gt;" style="rounded=1;whiteSpace=wrap;html=1;fillColor=#FFEC77;" vertex="1" parent="1">
          <mxGeometry x="920" y="320" width="80" height="80" as="geometry" />
        </mxCell>
        <mxCell id="Gv_gc-25FSfEhzksZ8vM-13" value="&lt;span style=&quot;font-size: 22px;&quot;&gt;STOP&lt;/span&gt;" style="rounded=1;whiteSpace=wrap;html=1;fillColor=#BE2828;" vertex="1" parent="1">
          <mxGeometry x="1000" y="320" width="80" height="80" as="geometry" />
        </mxCell>
        <mxCell id="Gv_gc-25FSfEhzksZ8vM-14" value="&lt;span style=&quot;color: rgb(0, 0, 0); font-size: 22px;&quot;&gt;D1&lt;/span&gt;" style="rounded=1;whiteSpace=wrap;html=1;fillColor=#87BE3B;" vertex="1" parent="1">
          <mxGeometry x="360" y="320" width="80" height="80" as="geometry" />
        </mxCell>
        <mxCell id="Gv_gc-25FSfEhzksZ8vM-15" value="&lt;span style=&quot;color: rgb(0, 0, 0); font-size: 22px;&quot;&gt;D2&lt;/span&gt;" style="rounded=1;whiteSpace=wrap;html=1;fillColor=#87BE3B;" vertex="1" parent="1">
          <mxGeometry x="440" y="320" width="80" height="80" as="geometry" />
        </mxCell>
        <mxCell id="Gv_gc-25FSfEhzksZ8vM-16" value="&lt;span style=&quot;color: rgb(0, 0, 0); font-size: 22px;&quot;&gt;D3&lt;/span&gt;" style="rounded=1;whiteSpace=wrap;html=1;fillColor=#87BE3B;" vertex="1" parent="1">
          <mxGeometry x="520" y="320" width="80" height="80" as="geometry" />
        </mxCell>
        <mxCell id="Gv_gc-25FSfEhzksZ8vM-17" value="&lt;span style=&quot;color: rgb(0, 0, 0); font-size: 22px;&quot;&gt;D4&lt;/span&gt;" style="rounded=1;whiteSpace=wrap;html=1;fillColor=#87BE3B;" vertex="1" parent="1">
          <mxGeometry x="600" y="320" width="80" height="80" as="geometry" />
        </mxCell>
        <mxCell id="Gv_gc-25FSfEhzksZ8vM-18" value="&lt;span style=&quot;color: rgb(0, 0, 0); font-size: 22px;&quot;&gt;D5&lt;/span&gt;" style="rounded=1;whiteSpace=wrap;html=1;fillColor=#87BE3B;" vertex="1" parent="1">
          <mxGeometry x="680" y="320" width="80" height="80" as="geometry" />
        </mxCell>
        <mxCell id="Gv_gc-25FSfEhzksZ8vM-19" value="&lt;span style=&quot;color: rgb(0, 0, 0); font-size: 22px;&quot;&gt;D6&lt;/span&gt;" style="rounded=1;whiteSpace=wrap;html=1;fillColor=#87BE3B;" vertex="1" parent="1">
          <mxGeometry x="760" y="320" width="80" height="80" as="geometry" />
        </mxCell>
        <mxCell id="Gv_gc-25FSfEhzksZ8vM-20" value="&lt;span style=&quot;color: rgb(0, 0, 0); font-size: 22px;&quot;&gt;D7&lt;/span&gt;" style="rounded=1;whiteSpace=wrap;html=1;fillColor=#87BE3B;" vertex="1" parent="1">
          <mxGeometry x="840" y="320" width="80" height="80" as="geometry" />
        </mxCell>
        <mxCell id="Gv_gc-25FSfEhzksZ8vM-21" value="" style="endArrow=none;dashed=1;html=1;rounded=0;" edge="1" parent="1">
          <mxGeometry width="50" height="50" relative="1" as="geometry">
            <mxPoint x="80" y="240" as="sourcePoint" />
            <mxPoint x="1200" y="240" as="targetPoint" />
          </mxGeometry>
        </mxCell>
        <mxCell id="Gv_gc-25FSfEhzksZ8vM-22" value="" style="endArrow=none;html=1;rounded=0;strokeColor=#FF1515;strokeWidth=2;" edge="1" parent="1">
          <mxGeometry width="50" height="50" relative="1" as="geometry">
            <mxPoint x="120" y="240" as="sourcePoint" />
            <mxPoint x="200" y="240" as="targetPoint" />
          </mxGeometry>
        </mxCell>
        <mxCell id="Gv_gc-25FSfEhzksZ8vM-24" value="" style="endArrow=none;html=1;rounded=0;strokeColor=#FF1515;strokeWidth=2;" edge="1" parent="1">
          <mxGeometry width="50" height="50" relative="1" as="geometry">
            <mxPoint x="200" y="280" as="sourcePoint" />
            <mxPoint x="360" y="280" as="targetPoint" />
          </mxGeometry>
        </mxCell>
        <mxCell id="Gv_gc-25FSfEhzksZ8vM-25" value="" style="endArrow=none;html=1;rounded=0;strokeColor=#FF1515;strokeWidth=2;" edge="1" parent="1">
          <mxGeometry width="50" height="50" relative="1" as="geometry">
            <mxPoint x="440" y="280" as="sourcePoint" />
            <mxPoint x="600" y="280" as="targetPoint" />
          </mxGeometry>
        </mxCell>
        <mxCell id="Gv_gc-25FSfEhzksZ8vM-26" value="" style="endArrow=none;html=1;rounded=0;strokeColor=#FF1515;strokeWidth=2;" edge="1" parent="1">
          <mxGeometry width="50" height="50" relative="1" as="geometry">
            <mxPoint x="600" y="240" as="sourcePoint" />
            <mxPoint x="760" y="240" as="targetPoint" />
          </mxGeometry>
        </mxCell>
        <mxCell id="Gv_gc-25FSfEhzksZ8vM-27" value="" style="endArrow=none;html=1;rounded=0;strokeColor=#FF1515;strokeWidth=2;" edge="1" parent="1">
          <mxGeometry width="50" height="50" relative="1" as="geometry">
            <mxPoint x="360" y="240" as="sourcePoint" />
            <mxPoint x="440" y="240" as="targetPoint" />
          </mxGeometry>
        </mxCell>
        <mxCell id="Gv_gc-25FSfEhzksZ8vM-28" value="" style="endArrow=none;html=1;rounded=0;strokeColor=#FF1515;strokeWidth=2;" edge="1" parent="1">
          <mxGeometry width="50" height="50" relative="1" as="geometry">
            <mxPoint x="200" y="280" as="sourcePoint" />
            <mxPoint x="200" y="240" as="targetPoint" />
          </mxGeometry>
        </mxCell>
        <mxCell id="Gv_gc-25FSfEhzksZ8vM-29" value="" style="endArrow=none;html=1;rounded=0;strokeColor=#FF1515;strokeWidth=2;" edge="1" parent="1">
          <mxGeometry width="50" height="50" relative="1" as="geometry">
            <mxPoint x="360" y="280" as="sourcePoint" />
            <mxPoint x="360" y="240" as="targetPoint" />
          </mxGeometry>
        </mxCell>
        <mxCell id="Gv_gc-25FSfEhzksZ8vM-30" value="" style="endArrow=none;html=1;rounded=0;strokeColor=#FF1515;strokeWidth=2;" edge="1" parent="1">
          <mxGeometry width="50" height="50" relative="1" as="geometry">
            <mxPoint x="439.17" y="280" as="sourcePoint" />
            <mxPoint x="439.17" y="240" as="targetPoint" />
          </mxGeometry>
        </mxCell>
        <mxCell id="Gv_gc-25FSfEhzksZ8vM-31" value="" style="endArrow=none;html=1;rounded=0;strokeColor=#FF1515;strokeWidth=2;" edge="1" parent="1">
          <mxGeometry width="50" height="50" relative="1" as="geometry">
            <mxPoint x="599.1700000000001" y="280" as="sourcePoint" />
            <mxPoint x="599.1700000000001" y="240" as="targetPoint" />
          </mxGeometry>
        </mxCell>
        <mxCell id="Gv_gc-25FSfEhzksZ8vM-32" value="" style="endArrow=none;html=1;rounded=0;strokeColor=#FF1515;strokeWidth=2;" edge="1" parent="1">
          <mxGeometry width="50" height="50" relative="1" as="geometry">
            <mxPoint x="760" y="280" as="sourcePoint" />
            <mxPoint x="760" y="240" as="targetPoint" />
          </mxGeometry>
        </mxCell>
        <mxCell id="Gv_gc-25FSfEhzksZ8vM-33" value="" style="endArrow=none;html=1;rounded=0;strokeColor=#FF1515;strokeWidth=2;" edge="1" parent="1">
          <mxGeometry width="50" height="50" relative="1" as="geometry">
            <mxPoint x="760" y="280" as="sourcePoint" />
            <mxPoint x="840" y="280" as="targetPoint" />
          </mxGeometry>
        </mxCell>
        <mxCell id="Gv_gc-25FSfEhzksZ8vM-34" value="" style="endArrow=none;html=1;rounded=0;strokeColor=#FF1515;strokeWidth=2;" edge="1" parent="1">
          <mxGeometry width="50" height="50" relative="1" as="geometry">
            <mxPoint x="840" y="280" as="sourcePoint" />
            <mxPoint x="840" y="240" as="targetPoint" />
          </mxGeometry>
        </mxCell>
        <mxCell id="Gv_gc-25FSfEhzksZ8vM-35" value="" style="endArrow=none;html=1;rounded=0;strokeColor=#FF1515;strokeWidth=2;" edge="1" parent="1">
          <mxGeometry width="50" height="50" relative="1" as="geometry">
            <mxPoint x="840" y="240" as="sourcePoint" />
            <mxPoint x="1160" y="240" as="targetPoint" />
          </mxGeometry>
        </mxCell>
        <mxCell id="Gv_gc-25FSfEhzksZ8vM-36" value="&lt;font style=&quot;font-size: 31px;&quot;&gt;0&lt;/font&gt;" style="text;html=1;align=center;verticalAlign=middle;whiteSpace=wrap;rounded=0;" vertex="1" parent="1">
          <mxGeometry x="275" y="235" width="90" height="50" as="geometry" />
        </mxCell>
        <mxCell id="Gv_gc-25FSfEhzksZ8vM-37" value="&lt;font style=&quot;font-size: 31px;&quot;&gt;0&lt;/font&gt;" style="text;html=1;align=center;verticalAlign=middle;whiteSpace=wrap;rounded=0;" vertex="1" parent="1">
          <mxGeometry x="435" y="235" width="90" height="50" as="geometry" />
        </mxCell>
        <mxCell id="Gv_gc-25FSfEhzksZ8vM-38" value="&lt;font style=&quot;font-size: 31px;&quot;&gt;0&lt;/font&gt;" style="text;html=1;align=center;verticalAlign=middle;whiteSpace=wrap;rounded=0;" vertex="1" parent="1">
          <mxGeometry x="515" y="235" width="90" height="50" as="geometry" />
        </mxCell>
        <mxCell id="Gv_gc-25FSfEhzksZ8vM-39" value="&lt;font style=&quot;font-size: 31px;&quot;&gt;0&lt;/font&gt;" style="text;html=1;align=center;verticalAlign=middle;whiteSpace=wrap;rounded=0;" vertex="1" parent="1">
          <mxGeometry x="755" y="235" width="90" height="50" as="geometry" />
        </mxCell>
        <mxCell id="Gv_gc-25FSfEhzksZ8vM-40" value="&lt;font style=&quot;font-size: 31px;&quot;&gt;1&lt;/font&gt;" style="text;html=1;align=center;verticalAlign=middle;whiteSpace=wrap;rounded=0;" vertex="1" parent="1">
          <mxGeometry x="355" y="237" width="90" height="50" as="geometry" />
        </mxCell>
        <mxCell id="Gv_gc-25FSfEhzksZ8vM-41" value="&lt;font style=&quot;font-size: 31px;&quot;&gt;1&lt;/font&gt;" style="text;html=1;align=center;verticalAlign=middle;whiteSpace=wrap;rounded=0;" vertex="1" parent="1">
          <mxGeometry x="595" y="237" width="90" height="50" as="geometry" />
        </mxCell>
        <mxCell id="Gv_gc-25FSfEhzksZ8vM-42" value="&lt;font style=&quot;font-size: 31px;&quot;&gt;1&lt;/font&gt;" style="text;html=1;align=center;verticalAlign=middle;whiteSpace=wrap;rounded=0;" vertex="1" parent="1">
          <mxGeometry x="675" y="236" width="90" height="50" as="geometry" />
        </mxCell>
        <mxCell id="Gv_gc-25FSfEhzksZ8vM-43" value="&lt;font style=&quot;font-size: 31px;&quot;&gt;1&lt;/font&gt;" style="text;html=1;align=center;verticalAlign=middle;whiteSpace=wrap;rounded=0;" vertex="1" parent="1">
          <mxGeometry x="835" y="237" width="90" height="50" as="geometry" />
        </mxCell>
        <mxCell id="Gv_gc-25FSfEhzksZ8vM-44" value="&lt;font style=&quot;font-size: 31px;&quot;&gt;&lt;b&gt;1&lt;/b&gt;&lt;/font&gt;" style="text;html=1;align=center;verticalAlign=middle;whiteSpace=wrap;rounded=0;" vertex="1" parent="1">
          <mxGeometry x="195" y="400" width="90" height="50" as="geometry" />
        </mxCell>
        <mxCell id="Gv_gc-25FSfEhzksZ8vM-45" value="&lt;font style=&quot;font-size: 31px;&quot;&gt;&lt;b&gt;2&lt;/b&gt;&lt;/font&gt;" style="text;html=1;align=center;verticalAlign=middle;whiteSpace=wrap;rounded=0;" vertex="1" parent="1">
          <mxGeometry x="275" y="400" width="90" height="50" as="geometry" />
        </mxCell>
        <mxCell id="Gv_gc-25FSfEhzksZ8vM-46" value="&lt;font style=&quot;font-size: 31px;&quot;&gt;&lt;b&gt;3&lt;/b&gt;&lt;/font&gt;" style="text;html=1;align=center;verticalAlign=middle;whiteSpace=wrap;rounded=0;" vertex="1" parent="1">
          <mxGeometry x="355" y="400" width="90" height="50" as="geometry" />
        </mxCell>
        <mxCell id="Gv_gc-25FSfEhzksZ8vM-47" value="&lt;font style=&quot;font-size: 31px;&quot;&gt;&lt;b&gt;4&lt;/b&gt;&lt;/font&gt;" style="text;html=1;align=center;verticalAlign=middle;whiteSpace=wrap;rounded=0;" vertex="1" parent="1">
          <mxGeometry x="435" y="400" width="90" height="50" as="geometry" />
        </mxCell>
        <mxCell id="Gv_gc-25FSfEhzksZ8vM-48" value="&lt;font style=&quot;font-size: 31px;&quot;&gt;&lt;b&gt;5&lt;/b&gt;&lt;/font&gt;" style="text;html=1;align=center;verticalAlign=middle;whiteSpace=wrap;rounded=0;" vertex="1" parent="1">
          <mxGeometry x="515" y="400" width="90" height="50" as="geometry" />
        </mxCell>
        <mxCell id="Gv_gc-25FSfEhzksZ8vM-49" value="&lt;font style=&quot;font-size: 31px;&quot;&gt;&lt;b&gt;6&lt;/b&gt;&lt;/font&gt;" style="text;html=1;align=center;verticalAlign=middle;whiteSpace=wrap;rounded=0;" vertex="1" parent="1">
          <mxGeometry x="595" y="400" width="90" height="50" as="geometry" />
        </mxCell>
        <mxCell id="Gv_gc-25FSfEhzksZ8vM-50" value="&lt;font style=&quot;font-size: 31px;&quot;&gt;&lt;b&gt;7&lt;/b&gt;&lt;/font&gt;" style="text;html=1;align=center;verticalAlign=middle;whiteSpace=wrap;rounded=0;" vertex="1" parent="1">
          <mxGeometry x="675" y="400" width="90" height="50" as="geometry" />
        </mxCell>
        <mxCell id="Gv_gc-25FSfEhzksZ8vM-51" value="&lt;font style=&quot;font-size: 31px;&quot;&gt;&lt;b&gt;8&lt;/b&gt;&lt;/font&gt;" style="text;html=1;align=center;verticalAlign=middle;whiteSpace=wrap;rounded=0;" vertex="1" parent="1">
          <mxGeometry x="755" y="400" width="90" height="50" as="geometry" />
        </mxCell>
        <mxCell id="Gv_gc-25FSfEhzksZ8vM-52" value="&lt;font style=&quot;font-size: 31px;&quot;&gt;&lt;b&gt;9&lt;/b&gt;&lt;/font&gt;" style="text;html=1;align=center;verticalAlign=middle;whiteSpace=wrap;rounded=0;" vertex="1" parent="1">
          <mxGeometry x="835" y="400" width="90" height="50" as="geometry" />
        </mxCell>
        <mxCell id="Gv_gc-25FSfEhzksZ8vM-53" value="&lt;font style=&quot;font-size: 31px;&quot;&gt;&lt;b&gt;10&lt;/b&gt;&lt;/font&gt;" style="text;html=1;align=center;verticalAlign=middle;whiteSpace=wrap;rounded=0;" vertex="1" parent="1">
          <mxGeometry x="915" y="400" width="90" height="50" as="geometry" />
        </mxCell>
        <mxCell id="Gv_gc-25FSfEhzksZ8vM-54" value="&lt;font style=&quot;font-size: 31px;&quot;&gt;&lt;b&gt;11&lt;/b&gt;&lt;/font&gt;" style="text;html=1;align=center;verticalAlign=middle;whiteSpace=wrap;rounded=0;" vertex="1" parent="1">
          <mxGeometry x="995" y="400" width="90" height="50" as="geometry" />
        </mxCell>
        <mxCell id="Gv_gc-25FSfEhzksZ8vM-56" value="" style="endArrow=none;dashed=1;html=1;dashPattern=1 3;strokeWidth=2;rounded=0;" edge="1" parent="1">
          <mxGeometry width="50" height="50" relative="1" as="geometry">
            <mxPoint x="280" y="440" as="sourcePoint" />
            <mxPoint x="280" y="200" as="targetPoint" />
          </mxGeometry>
        </mxCell>
        <mxCell id="Gv_gc-25FSfEhzksZ8vM-57" value="" style="endArrow=none;dashed=1;html=1;dashPattern=1 3;strokeWidth=2;rounded=0;" edge="1" parent="1">
          <mxGeometry width="50" height="50" relative="1" as="geometry">
            <mxPoint x="359.31" y="440" as="sourcePoint" />
            <mxPoint x="359.31" y="200" as="targetPoint" />
          </mxGeometry>
        </mxCell>
        <mxCell id="Gv_gc-25FSfEhzksZ8vM-58" value="" style="endArrow=none;dashed=1;html=1;dashPattern=1 3;strokeWidth=2;rounded=0;" edge="1" parent="1">
          <mxGeometry width="50" height="50" relative="1" as="geometry">
            <mxPoint x="440" y="440" as="sourcePoint" />
            <mxPoint x="440" y="200" as="targetPoint" />
          </mxGeometry>
        </mxCell>
        <mxCell id="Gv_gc-25FSfEhzksZ8vM-59" value="" style="endArrow=none;dashed=1;html=1;dashPattern=1 3;strokeWidth=2;rounded=0;" edge="1" parent="1">
          <mxGeometry width="50" height="50" relative="1" as="geometry">
            <mxPoint x="519.31" y="440" as="sourcePoint" />
            <mxPoint x="519.31" y="200" as="targetPoint" />
          </mxGeometry>
        </mxCell>
        <mxCell id="Gv_gc-25FSfEhzksZ8vM-60" value="" style="endArrow=none;dashed=1;html=1;dashPattern=1 3;strokeWidth=2;rounded=0;" edge="1" parent="1">
          <mxGeometry width="50" height="50" relative="1" as="geometry">
            <mxPoint x="599.31" y="440" as="sourcePoint" />
            <mxPoint x="599.31" y="200" as="targetPoint" />
          </mxGeometry>
        </mxCell>
        <mxCell id="Gv_gc-25FSfEhzksZ8vM-61" value="" style="endArrow=none;dashed=1;html=1;dashPattern=1 3;strokeWidth=2;rounded=0;" edge="1" parent="1">
          <mxGeometry width="50" height="50" relative="1" as="geometry">
            <mxPoint x="680" y="440" as="sourcePoint" />
            <mxPoint x="680" y="200" as="targetPoint" />
          </mxGeometry>
        </mxCell>
        <mxCell id="Gv_gc-25FSfEhzksZ8vM-62" value="" style="endArrow=none;dashed=1;html=1;dashPattern=1 3;strokeWidth=2;rounded=0;" edge="1" parent="1">
          <mxGeometry width="50" height="50" relative="1" as="geometry">
            <mxPoint x="759.31" y="440" as="sourcePoint" />
            <mxPoint x="759.31" y="200" as="targetPoint" />
          </mxGeometry>
        </mxCell>
        <mxCell id="Gv_gc-25FSfEhzksZ8vM-63" value="" style="endArrow=none;dashed=1;html=1;dashPattern=1 3;strokeWidth=2;rounded=0;" edge="1" parent="1">
          <mxGeometry width="50" height="50" relative="1" as="geometry">
            <mxPoint x="840" y="440" as="sourcePoint" />
            <mxPoint x="840" y="200" as="targetPoint" />
          </mxGeometry>
        </mxCell>
        <mxCell id="Gv_gc-25FSfEhzksZ8vM-64" value="" style="endArrow=none;dashed=1;html=1;dashPattern=1 3;strokeWidth=2;rounded=0;" edge="1" parent="1">
          <mxGeometry width="50" height="50" relative="1" as="geometry">
            <mxPoint x="920" y="440" as="sourcePoint" />
            <mxPoint x="920" y="200" as="targetPoint" />
          </mxGeometry>
        </mxCell>
        <mxCell id="Gv_gc-25FSfEhzksZ8vM-65" value="" style="endArrow=none;dashed=1;html=1;dashPattern=1 3;strokeWidth=2;rounded=0;" edge="1" parent="1">
          <mxGeometry width="50" height="50" relative="1" as="geometry">
            <mxPoint x="1000" y="440" as="sourcePoint" />
            <mxPoint x="1000" y="200" as="targetPoint" />
          </mxGeometry>
        </mxCell>
        <mxCell id="Gv_gc-25FSfEhzksZ8vM-66" value="" style="endArrow=none;html=1;rounded=0;strokeWidth=2;" edge="1" parent="1">
          <mxGeometry width="50" height="50" relative="1" as="geometry">
            <mxPoint x="160" y="520" as="sourcePoint" />
            <mxPoint x="200" y="520" as="targetPoint" />
          </mxGeometry>
        </mxCell>
        <mxCell id="Gv_gc-25FSfEhzksZ8vM-67" value="" style="endArrow=none;html=1;rounded=0;strokeWidth=2;" edge="1" parent="1">
          <mxGeometry width="50" height="50" relative="1" as="geometry">
            <mxPoint x="240" y="520" as="sourcePoint" />
            <mxPoint x="280" y="520" as="targetPoint" />
          </mxGeometry>
        </mxCell>
        <mxCell id="Gv_gc-25FSfEhzksZ8vM-68" value="" style="endArrow=none;html=1;rounded=0;strokeWidth=2;" edge="1" parent="1">
          <mxGeometry width="50" height="50" relative="1" as="geometry">
            <mxPoint x="320" y="520" as="sourcePoint" />
            <mxPoint x="360" y="520" as="targetPoint" />
          </mxGeometry>
        </mxCell>
        <mxCell id="Gv_gc-25FSfEhzksZ8vM-69" value="" style="endArrow=none;html=1;rounded=0;strokeWidth=2;" edge="1" parent="1">
          <mxGeometry width="50" height="50" relative="1" as="geometry">
            <mxPoint x="400" y="520" as="sourcePoint" />
            <mxPoint x="440" y="520" as="targetPoint" />
          </mxGeometry>
        </mxCell>
        <mxCell id="Gv_gc-25FSfEhzksZ8vM-70" value="" style="endArrow=none;html=1;rounded=0;strokeWidth=2;" edge="1" parent="1">
          <mxGeometry width="50" height="50" relative="1" as="geometry">
            <mxPoint x="480" y="520" as="sourcePoint" />
            <mxPoint x="520" y="520" as="targetPoint" />
          </mxGeometry>
        </mxCell>
        <mxCell id="Gv_gc-25FSfEhzksZ8vM-71" value="" style="endArrow=none;html=1;rounded=0;strokeWidth=2;" edge="1" parent="1">
          <mxGeometry width="50" height="50" relative="1" as="geometry">
            <mxPoint x="560" y="520" as="sourcePoint" />
            <mxPoint x="600" y="520" as="targetPoint" />
          </mxGeometry>
        </mxCell>
        <mxCell id="Gv_gc-25FSfEhzksZ8vM-72" value="" style="endArrow=none;html=1;rounded=0;strokeWidth=2;" edge="1" parent="1">
          <mxGeometry width="50" height="50" relative="1" as="geometry">
            <mxPoint x="640" y="520" as="sourcePoint" />
            <mxPoint x="680" y="520" as="targetPoint" />
          </mxGeometry>
        </mxCell>
        <mxCell id="Gv_gc-25FSfEhzksZ8vM-73" value="" style="endArrow=none;html=1;rounded=0;strokeWidth=2;" edge="1" parent="1">
          <mxGeometry width="50" height="50" relative="1" as="geometry">
            <mxPoint x="720" y="520" as="sourcePoint" />
            <mxPoint x="760" y="520" as="targetPoint" />
          </mxGeometry>
        </mxCell>
        <mxCell id="Gv_gc-25FSfEhzksZ8vM-74" value="" style="endArrow=none;html=1;rounded=0;strokeWidth=2;" edge="1" parent="1">
          <mxGeometry width="50" height="50" relative="1" as="geometry">
            <mxPoint x="800" y="520" as="sourcePoint" />
            <mxPoint x="840" y="520" as="targetPoint" />
          </mxGeometry>
        </mxCell>
        <mxCell id="Gv_gc-25FSfEhzksZ8vM-75" value="" style="endArrow=none;html=1;rounded=0;strokeWidth=2;" edge="1" parent="1">
          <mxGeometry width="50" height="50" relative="1" as="geometry">
            <mxPoint x="880" y="520" as="sourcePoint" />
            <mxPoint x="920" y="520" as="targetPoint" />
          </mxGeometry>
        </mxCell>
        <mxCell id="Gv_gc-25FSfEhzksZ8vM-76" value="" style="endArrow=none;html=1;rounded=0;strokeWidth=2;" edge="1" parent="1">
          <mxGeometry width="50" height="50" relative="1" as="geometry">
            <mxPoint x="960" y="520" as="sourcePoint" />
            <mxPoint x="1000" y="520" as="targetPoint" />
          </mxGeometry>
        </mxCell>
        <mxCell id="Gv_gc-25FSfEhzksZ8vM-77" value="" style="endArrow=none;html=1;rounded=0;strokeWidth=2;" edge="1" parent="1">
          <mxGeometry width="50" height="50" relative="1" as="geometry">
            <mxPoint x="1040" y="520" as="sourcePoint" />
            <mxPoint x="1080" y="520" as="targetPoint" />
          </mxGeometry>
        </mxCell>
        <mxCell id="Gv_gc-25FSfEhzksZ8vM-78" value="" style="endArrow=none;html=1;rounded=0;strokeWidth=2;" edge="1" parent="1">
          <mxGeometry width="50" height="50" relative="1" as="geometry">
            <mxPoint x="200" y="480" as="sourcePoint" />
            <mxPoint x="240" y="480" as="targetPoint" />
          </mxGeometry>
        </mxCell>
        <mxCell id="Gv_gc-25FSfEhzksZ8vM-79" value="" style="endArrow=none;html=1;rounded=0;strokeWidth=2;" edge="1" parent="1">
          <mxGeometry width="50" height="50" relative="1" as="geometry">
            <mxPoint x="280" y="480" as="sourcePoint" />
            <mxPoint x="320" y="480" as="targetPoint" />
          </mxGeometry>
        </mxCell>
        <mxCell id="Gv_gc-25FSfEhzksZ8vM-80" value="" style="endArrow=none;html=1;rounded=0;strokeWidth=2;" edge="1" parent="1">
          <mxGeometry width="50" height="50" relative="1" as="geometry">
            <mxPoint x="360" y="480" as="sourcePoint" />
            <mxPoint x="400" y="480" as="targetPoint" />
          </mxGeometry>
        </mxCell>
        <mxCell id="Gv_gc-25FSfEhzksZ8vM-81" value="" style="endArrow=none;html=1;rounded=0;strokeWidth=2;" edge="1" parent="1">
          <mxGeometry width="50" height="50" relative="1" as="geometry">
            <mxPoint x="440" y="480" as="sourcePoint" />
            <mxPoint x="480" y="480" as="targetPoint" />
          </mxGeometry>
        </mxCell>
        <mxCell id="Gv_gc-25FSfEhzksZ8vM-82" value="" style="endArrow=none;html=1;rounded=0;strokeWidth=2;" edge="1" parent="1">
          <mxGeometry width="50" height="50" relative="1" as="geometry">
            <mxPoint x="520" y="480" as="sourcePoint" />
            <mxPoint x="560" y="480" as="targetPoint" />
          </mxGeometry>
        </mxCell>
        <mxCell id="Gv_gc-25FSfEhzksZ8vM-83" value="" style="endArrow=none;html=1;rounded=0;strokeWidth=2;" edge="1" parent="1">
          <mxGeometry width="50" height="50" relative="1" as="geometry">
            <mxPoint x="600" y="480" as="sourcePoint" />
            <mxPoint x="640" y="480" as="targetPoint" />
          </mxGeometry>
        </mxCell>
        <mxCell id="Gv_gc-25FSfEhzksZ8vM-84" value="" style="endArrow=none;html=1;rounded=0;strokeWidth=2;" edge="1" parent="1">
          <mxGeometry width="50" height="50" relative="1" as="geometry">
            <mxPoint x="680" y="480" as="sourcePoint" />
            <mxPoint x="720" y="480" as="targetPoint" />
          </mxGeometry>
        </mxCell>
        <mxCell id="Gv_gc-25FSfEhzksZ8vM-85" value="" style="endArrow=none;html=1;rounded=0;strokeWidth=2;" edge="1" parent="1">
          <mxGeometry width="50" height="50" relative="1" as="geometry">
            <mxPoint x="760" y="480" as="sourcePoint" />
            <mxPoint x="800" y="480" as="targetPoint" />
          </mxGeometry>
        </mxCell>
        <mxCell id="Gv_gc-25FSfEhzksZ8vM-86" value="" style="endArrow=none;html=1;rounded=0;strokeWidth=2;" edge="1" parent="1">
          <mxGeometry width="50" height="50" relative="1" as="geometry">
            <mxPoint x="840" y="480" as="sourcePoint" />
            <mxPoint x="880" y="480" as="targetPoint" />
          </mxGeometry>
        </mxCell>
        <mxCell id="Gv_gc-25FSfEhzksZ8vM-87" value="" style="endArrow=none;html=1;rounded=0;strokeWidth=2;" edge="1" parent="1">
          <mxGeometry width="50" height="50" relative="1" as="geometry">
            <mxPoint x="920" y="480" as="sourcePoint" />
            <mxPoint x="960" y="480" as="targetPoint" />
          </mxGeometry>
        </mxCell>
        <mxCell id="Gv_gc-25FSfEhzksZ8vM-88" value="" style="endArrow=none;html=1;rounded=0;strokeWidth=2;" edge="1" parent="1">
          <mxGeometry width="50" height="50" relative="1" as="geometry">
            <mxPoint x="1000" y="480" as="sourcePoint" />
            <mxPoint x="1040" y="480" as="targetPoint" />
          </mxGeometry>
        </mxCell>
        <mxCell id="Gv_gc-25FSfEhzksZ8vM-90" value="" style="endArrow=none;html=1;rounded=0;strokeWidth=2;" edge="1" parent="1">
          <mxGeometry width="50" height="50" relative="1" as="geometry">
            <mxPoint x="1040" y="480" as="sourcePoint" />
            <mxPoint x="1040" y="520" as="targetPoint" />
          </mxGeometry>
        </mxCell>
        <mxCell id="Gv_gc-25FSfEhzksZ8vM-91" value="" style="endArrow=none;html=1;rounded=0;strokeWidth=2;" edge="1" parent="1">
          <mxGeometry width="50" height="50" relative="1" as="geometry">
            <mxPoint x="1000" y="480" as="sourcePoint" />
            <mxPoint x="1000" y="520" as="targetPoint" />
          </mxGeometry>
        </mxCell>
        <mxCell id="Gv_gc-25FSfEhzksZ8vM-92" value="" style="endArrow=none;html=1;rounded=0;strokeWidth=2;" edge="1" parent="1">
          <mxGeometry width="50" height="50" relative="1" as="geometry">
            <mxPoint x="959.66" y="480" as="sourcePoint" />
            <mxPoint x="959.66" y="520" as="targetPoint" />
          </mxGeometry>
        </mxCell>
        <mxCell id="Gv_gc-25FSfEhzksZ8vM-93" value="" style="endArrow=none;html=1;rounded=0;strokeWidth=2;" edge="1" parent="1">
          <mxGeometry width="50" height="50" relative="1" as="geometry">
            <mxPoint x="920" y="480" as="sourcePoint" />
            <mxPoint x="920" y="520" as="targetPoint" />
          </mxGeometry>
        </mxCell>
        <mxCell id="Gv_gc-25FSfEhzksZ8vM-94" value="" style="endArrow=none;html=1;rounded=0;strokeWidth=2;" edge="1" parent="1">
          <mxGeometry width="50" height="50" relative="1" as="geometry">
            <mxPoint x="879.66" y="480" as="sourcePoint" />
            <mxPoint x="879.66" y="520" as="targetPoint" />
          </mxGeometry>
        </mxCell>
        <mxCell id="Gv_gc-25FSfEhzksZ8vM-95" value="" style="endArrow=none;html=1;rounded=0;strokeWidth=2;" edge="1" parent="1">
          <mxGeometry width="50" height="50" relative="1" as="geometry">
            <mxPoint x="839.31" y="480" as="sourcePoint" />
            <mxPoint x="839.31" y="520" as="targetPoint" />
          </mxGeometry>
        </mxCell>
        <mxCell id="Gv_gc-25FSfEhzksZ8vM-96" value="" style="endArrow=none;html=1;rounded=0;strokeWidth=2;" edge="1" parent="1">
          <mxGeometry width="50" height="50" relative="1" as="geometry">
            <mxPoint x="799.8" y="480" as="sourcePoint" />
            <mxPoint x="799.8" y="520" as="targetPoint" />
          </mxGeometry>
        </mxCell>
        <mxCell id="Gv_gc-25FSfEhzksZ8vM-97" value="" style="endArrow=none;html=1;rounded=0;strokeWidth=2;" edge="1" parent="1">
          <mxGeometry width="50" height="50" relative="1" as="geometry">
            <mxPoint x="760" y="480" as="sourcePoint" />
            <mxPoint x="760" y="520" as="targetPoint" />
          </mxGeometry>
        </mxCell>
        <mxCell id="Gv_gc-25FSfEhzksZ8vM-98" value="" style="endArrow=none;html=1;rounded=0;strokeWidth=2;" edge="1" parent="1">
          <mxGeometry width="50" height="50" relative="1" as="geometry">
            <mxPoint x="719.8" y="480" as="sourcePoint" />
            <mxPoint x="719.8" y="520" as="targetPoint" />
          </mxGeometry>
        </mxCell>
        <mxCell id="Gv_gc-25FSfEhzksZ8vM-99" value="" style="endArrow=none;html=1;rounded=0;strokeWidth=2;" edge="1" parent="1">
          <mxGeometry width="50" height="50" relative="1" as="geometry">
            <mxPoint x="680" y="480" as="sourcePoint" />
            <mxPoint x="680" y="520" as="targetPoint" />
          </mxGeometry>
        </mxCell>
        <mxCell id="Gv_gc-25FSfEhzksZ8vM-100" value="" style="endArrow=none;html=1;rounded=0;strokeWidth=2;" edge="1" parent="1">
          <mxGeometry width="50" height="50" relative="1" as="geometry">
            <mxPoint x="639.8" y="480" as="sourcePoint" />
            <mxPoint x="639.8" y="520" as="targetPoint" />
          </mxGeometry>
        </mxCell>
        <mxCell id="Gv_gc-25FSfEhzksZ8vM-101" value="" style="endArrow=none;html=1;rounded=0;strokeWidth=2;" edge="1" parent="1">
          <mxGeometry width="50" height="50" relative="1" as="geometry">
            <mxPoint x="600" y="480" as="sourcePoint" />
            <mxPoint x="600" y="520" as="targetPoint" />
          </mxGeometry>
        </mxCell>
        <mxCell id="Gv_gc-25FSfEhzksZ8vM-102" value="" style="endArrow=none;html=1;rounded=0;strokeWidth=2;" edge="1" parent="1">
          <mxGeometry width="50" height="50" relative="1" as="geometry">
            <mxPoint x="559.8" y="480" as="sourcePoint" />
            <mxPoint x="559.8" y="520" as="targetPoint" />
          </mxGeometry>
        </mxCell>
        <mxCell id="Gv_gc-25FSfEhzksZ8vM-103" value="" style="endArrow=none;html=1;rounded=0;strokeWidth=2;" edge="1" parent="1">
          <mxGeometry width="50" height="50" relative="1" as="geometry">
            <mxPoint x="520" y="480" as="sourcePoint" />
            <mxPoint x="520" y="520" as="targetPoint" />
          </mxGeometry>
        </mxCell>
        <mxCell id="Gv_gc-25FSfEhzksZ8vM-104" value="" style="endArrow=none;html=1;rounded=0;strokeWidth=2;" edge="1" parent="1">
          <mxGeometry width="50" height="50" relative="1" as="geometry">
            <mxPoint x="479.8" y="480" as="sourcePoint" />
            <mxPoint x="479.8" y="520" as="targetPoint" />
          </mxGeometry>
        </mxCell>
        <mxCell id="Gv_gc-25FSfEhzksZ8vM-105" value="" style="endArrow=none;html=1;rounded=0;strokeWidth=2;" edge="1" parent="1">
          <mxGeometry width="50" height="50" relative="1" as="geometry">
            <mxPoint x="439.6" y="480" as="sourcePoint" />
            <mxPoint x="439.6" y="520" as="targetPoint" />
          </mxGeometry>
        </mxCell>
        <mxCell id="Gv_gc-25FSfEhzksZ8vM-106" value="" style="endArrow=none;html=1;rounded=0;strokeWidth=2;" edge="1" parent="1">
          <mxGeometry width="50" height="50" relative="1" as="geometry">
            <mxPoint x="399.8" y="480" as="sourcePoint" />
            <mxPoint x="399.8" y="520" as="targetPoint" />
          </mxGeometry>
        </mxCell>
        <mxCell id="Gv_gc-25FSfEhzksZ8vM-107" value="" style="endArrow=none;html=1;rounded=0;strokeWidth=2;" edge="1" parent="1">
          <mxGeometry width="50" height="50" relative="1" as="geometry">
            <mxPoint x="360" y="480" as="sourcePoint" />
            <mxPoint x="360" y="520" as="targetPoint" />
          </mxGeometry>
        </mxCell>
        <mxCell id="Gv_gc-25FSfEhzksZ8vM-108" value="" style="endArrow=none;html=1;rounded=0;strokeWidth=2;" edge="1" parent="1">
          <mxGeometry width="50" height="50" relative="1" as="geometry">
            <mxPoint x="319.8" y="480" as="sourcePoint" />
            <mxPoint x="319.8" y="520" as="targetPoint" />
          </mxGeometry>
        </mxCell>
        <mxCell id="Gv_gc-25FSfEhzksZ8vM-109" value="" style="endArrow=none;html=1;rounded=0;strokeWidth=2;" edge="1" parent="1">
          <mxGeometry width="50" height="50" relative="1" as="geometry">
            <mxPoint x="279.6" y="480" as="sourcePoint" />
            <mxPoint x="279.6" y="520" as="targetPoint" />
          </mxGeometry>
        </mxCell>
        <mxCell id="Gv_gc-25FSfEhzksZ8vM-110" value="" style="endArrow=none;html=1;rounded=0;strokeWidth=2;" edge="1" parent="1">
          <mxGeometry width="50" height="50" relative="1" as="geometry">
            <mxPoint x="239.8" y="480" as="sourcePoint" />
            <mxPoint x="239.8" y="520" as="targetPoint" />
          </mxGeometry>
        </mxCell>
        <mxCell id="Gv_gc-25FSfEhzksZ8vM-111" value="" style="endArrow=none;html=1;rounded=0;strokeWidth=2;" edge="1" parent="1">
          <mxGeometry width="50" height="50" relative="1" as="geometry">
            <mxPoint x="200" y="480" as="sourcePoint" />
            <mxPoint x="200" y="520" as="targetPoint" />
          </mxGeometry>
        </mxCell>
        <mxCell id="Gv_gc-25FSfEhzksZ8vM-112" value="Pulsos de CLK fornecidos ao &lt;i&gt;shift register d&lt;/i&gt;o transmissor" style="text;html=1;align=center;verticalAlign=middle;whiteSpace=wrap;rounded=0;" vertex="1" parent="1">
          <mxGeometry x="1055" y="460" width="160" height="70" as="geometry" />
        </mxCell>
      </root>
    </mxGraphModel>
  </diagram>
</mxfile>
